<?xml version="1.0" standalone="no"?>
<!DOCTYPE svg PUBLIC "-//W3C//DTD SVG 20010904//EN"
 "http://www.w3.org/TR/2001/REC-SVG-20010904/DTD/svg10.dtd">
<svg version="1.0" xmlns="http://www.w3.org/2000/svg"
 width="396.000000pt" height="396.000000pt" viewBox="0 0 396.000000 396.000000"
 preserveAspectRatio="xMidYMid meet">
<metadata>
Created by potrace 1.14, written by Peter Selinger 2001-2017
</metadata>
<g transform="translate(0.000000,396.000000) scale(0.100000,-0.100000)"
fill="#000000" stroke="none">
<path d="M769 3672 c-41 -59 -90 -250 -89 -352 0 -25 0 -80 0 -124 -1 -91 5
-116 27 -116 12 0 14 -7 10 -30 -8 -35 8 -49 23 -20 14 26 30 26 37 0 9 -33
23 -12 23 35 0 52 15 67 24 24 3 -16 16 -44 30 -62 13 -18 34 -52 46 -77 13
-25 36 -60 51 -78 36 -41 37 -62 4 -62 -16 0 -25 -6 -25 -16 0 -10 -5 -12 -12
-7 -7 4 -22 6 -33 5 -11 -2 -42 9 -68 23 -64 33 -79 33 -71 -2 3 -16 13 -32
22 -38 8 -5 29 -22 46 -37 41 -34 65 -38 80 -13 15 27 27 35 53 35 12 0 26 8
32 18 8 15 11 13 21 -13 8 -22 13 -26 20 -16 11 19 40 6 40 -19 0 -11 7 -23
15 -26 8 -4 12 -10 9 -15 -3 -5 1 -9 9 -9 8 0 17 7 21 15 3 8 10 15 16 15 6 0
18 6 25 13 40 35 51 42 74 45 15 2 37 14 50 27 l24 24 -32 36 c-18 21 -29 40
-26 43 4 4 11 -1 16 -11 6 -9 17 -17 24 -17 8 0 15 -6 15 -14 0 -22 85 29 112
67 12 18 49 60 83 94 71 72 87 91 100 118 12 22 8 55 -5 55 -16 0 -72 -38 -62
-41 6 -2 2 -14 -7 -26 l-18 -22 -34 25 c-19 14 -40 29 -47 33 -7 4 -15 16 -16
27 -2 10 -10 18 -19 18 -9 -1 -13 4 -10 12 3 9 -2 14 -16 14 -13 0 -25 9 -30
24 -19 49 -71 122 -99 139 -30 17 -59 24 -33 8 12 -8 17 -23 20 -67 1 -6 9
-21 20 -32 10 -12 21 -43 25 -68 3 -27 14 -53 24 -60 10 -8 12 -13 5 -14 -8 0
-4 -16 12 -44 29 -51 31 -74 10 -102 -8 -10 -15 -28 -15 -39 -1 -19 -2 -19
-12 3 -6 12 -14 22 -18 22 -4 0 -11 -10 -14 -22 -6 -22 -7 -21 -22 11 -11 26
-17 32 -26 23 -17 -17 -31 -15 -24 4 4 11 -1 22 -14 31 -26 19 -17 33 23 34
18 1 24 3 15 6 -21 5 -24 23 -5 23 8 0 13 13 13 35 0 22 -5 35 -13 35 -18 0
-17 16 1 23 8 3 17 1 20 -6 3 -8 5 -6 5 3 1 23 -37 44 -54 30 -8 -7 -15 -7
-19 -1 -3 5 0 11 6 14 8 3 0 17 -22 38 -19 18 -34 40 -32 49 4 25 -54 72 -81
65 -18 -5 -19 -4 -7 5 12 9 10 11 -12 7 -16 -2 -28 0 -28 4 0 13 -38 11 -46
-3 -5 -7 -10 -4 -15 10 -5 13 -17 22 -28 22 -34 0 -34 20 1 35 27 12 29 14 11
15 -28 0 -30 16 -4 30 26 13 25 66 -2 85 -10 7 -16 18 -12 24 3 6 1 11 -4 11
-6 0 -11 8 -11 18 0 11 -8 26 -17 34 -30 25 -56 19 -84 -20z m294 -337 c-3 -9
-8 -14 -10 -11 -3 3 -2 9 2 15 9 16 15 13 8 -4z m-270 -12 c-7 -2 -13 -9 -13
-14 0 -6 8 -5 20 1 16 9 20 8 20 -5 0 -19 -33 -20 -49 -2 -13 16 -5 27 18 26
10 0 12 -2 4 -6z m-42 -52 c-11 -7 -12 -13 -3 -23 9 -11 7 -14 -9 -15 -11 -1
-18 1 -16 5 2 4 7 15 10 25 4 9 12 17 19 17 10 0 9 -3 -1 -9z m69 -117 c0 -14
-3 -14 -15 -4 -8 7 -15 14 -15 16 0 2 7 4 15 4 8 0 15 -7 15 -16z m500 -260
c0 -14 -21 -19 -33 -8 -8 8 16 33 26 27 4 -2 7 -11 7 -19z"/>
<path d="M2608 3628 c9 -9 15 -9 24 0 9 9 7 12 -12 12 -19 0 -21 -3 -12 -12z"/>
<path d="M2661 3498 c0 -10 -8 -18 -16 -18 -8 0 -15 -5 -15 -10 0 -6 -11 -22
-25 -36 -14 -13 -24 -30 -22 -37 1 -6 -8 -13 -20 -15 -25 -4 -30 -17 -10 -25
30 -12 82 9 97 38 8 16 21 35 28 43 14 16 16 42 3 42 -5 0 -12 8 -14 18 -4 16
-5 16 -6 0z"/>
<path d="M2762 3283 c5 -25 28 -28 28 -4 0 12 -6 21 -16 21 -9 0 -14 -7 -12
-17z"/>
<path d="M3928 3073 c-9 -2 -19 -12 -23 -21 -3 -9 -3 -13 1 -9 4 4 18 0 31 -8
22 -15 23 -14 23 9 0 28 -7 34 -32 29z"/>
<path d="M805 2990 c3 -5 8 -10 11 -10 2 0 4 5 4 10 0 6 -5 10 -11 10 -5 0 -7
-4 -4 -10z"/>
<path d="M720 2956 c0 -3 5 -17 12 -31 11 -26 32 -33 43 -15 3 6 -3 10 -14 10
-12 0 -21 6 -21 14 0 8 -4 18 -10 21 -5 3 -10 4 -10 1z"/>
<path d="M2949 2663 c-83 -58 -96 -105 -53 -188 29 -54 33 -58 84 -96 53 -39
105 -56 124 -40 9 7 13 18 10 23 -4 6 2 8 15 3 26 -8 28 11 5 43 -11 16 -14
34 -9 62 5 28 1 51 -14 84 -20 46 -20 46 0 35 11 -5 23 -17 26 -25 8 -21 34
-18 27 4 -11 33 -29 67 -47 87 -25 28 -132 33 -168 8z m119 -87 c3 -12 -1 -17
-10 -14 -7 3 -15 13 -16 22 -3 12 1 17 10 14 7 -3 15 -13 16 -22z m-103 -6
c11 -17 -5 -32 -21 -19 -8 6 -14 15 -14 20 0 12 27 11 35 -1z"/>
<path d="M773 2657 c-35 -12 -45 -33 -34 -75 5 -17 3 -34 -5 -47 -14 -21 -19
-64 -16 -132 2 -38 7 -45 47 -73 25 -17 50 -28 55 -25 6 3 10 23 10 44 0 22 6
44 15 51 8 7 14 18 13 24 -2 6 8 26 21 45 13 18 25 40 26 50 1 9 6 28 12 42
15 36 2 95 -20 91 -9 -2 -17 2 -17 8 0 12 -64 11 -107 -3z m124 -99 c-3 -8 -6
-5 -6 6 -1 11 2 17 5 13 3 -3 4 -12 1 -19z"/>
<path d="M980 2630 c0 -12 -7 -20 -17 -20 -9 0 -14 -2 -11 -5 3 -4 17 -3 31 0
18 5 23 12 20 26 -7 25 -23 25 -23 -1z"/>
<path d="M2000 2495 c-19 -7 -45 -14 -57 -14 -13 -1 -23 -5 -23 -11 0 -5 -7
-10 -15 -10 -8 0 -23 -8 -33 -18 -10 -10 -34 -30 -55 -46 -20 -16 -34 -32 -31
-37 3 -5 -2 -9 -10 -9 -9 0 -15 3 -15 8 4 21 -3 24 -16 6 -19 -25 -19 -38 0
-30 10 4 15 -1 15 -14 0 -23 113 -140 135 -140 8 0 15 -4 15 -10 0 -5 10 -10
23 -10 12 -1 33 -7 47 -15 14 -8 49 -14 77 -15 66 0 243 54 243 75 0 21 40 54
75 63 20 6 30 14 30 28 0 20 -14 30 -77 61 -21 10 -38 23 -38 30 0 7 -18 16
-39 19 -22 4 -49 15 -60 25 -11 11 -24 19 -29 19 -5 0 -15 7 -22 16 -14 16
-75 45 -94 43 -6 0 -27 -7 -46 -14z m164 -138 c31 -48 33 -87 7 -111 -23 -21
-28 -15 -66 77 -28 67 -28 67 -62 61 -49 -9 -45 21 5 33 47 12 79 -4 116 -60z"/>
<path d="M3167 2478 c-3 -18 -8 -43 -12 -55 -4 -14 -3 -23 3 -23 15 0 37 89
25 101 -7 7 -12 0 -16 -23z"/>
<path d="M3140 2055 c0 -12 -4 -14 -19 -5 -39 20 -180 -26 -242 -80 -13 -11
-32 -26 -41 -33 -13 -9 -17 -27 -18 -67 0 -77 2 -94 12 -101 4 -3 9 -24 11
-48 2 -33 8 -45 27 -55 15 -7 24 -19 22 -29 -2 -11 4 -17 15 -18 15 0 14 -2
-4 -11 -23 -11 -31 -28 -13 -28 6 0 10 -9 10 -21 0 -15 -5 -19 -15 -15 -24 9
-32 -24 -10 -40 15 -12 20 -11 31 4 17 22 18 11 1 -19 -26 -50 -26 -50 -58
-34 -35 19 -39 4 -9 -35 23 -30 25 -50 5 -50 -8 0 -15 7 -15 16 0 8 -4 12 -10
9 -5 -3 -10 -15 -10 -26 0 -11 4 -18 9 -14 5 3 12 1 15 -3 6 -10 -36 -32 -60
-32 -8 0 -26 -11 -39 -24 -24 -24 -26 -24 -56 -9 -18 9 -50 17 -72 19 -21 2
-68 11 -103 20 -35 8 -68 13 -73 10 -5 -4 -12 -2 -16 4 -3 5 -22 10 -41 10
-19 0 -34 5 -34 12 0 6 -7 4 -18 -5 -10 -10 -24 -17 -30 -17 -7 0 -12 -11 -12
-24 0 -17 7 -26 25 -30 16 -4 22 -11 19 -21 -4 -8 -1 -15 5 -15 6 0 8 -7 5
-15 -6 -15 13 -20 57 -17 12 1 15 -5 11 -23 -4 -21 -1 -25 22 -25 14 0 26 5
26 10 0 6 5 10 10 10 6 0 10 -7 10 -16 0 -10 6 -13 18 -10 9 3 23 2 30 -3 10
-6 8 -10 -10 -16 -21 -7 -20 -8 11 -12 18 -3 38 0 44 6 6 6 21 11 33 11 13 0
25 4 28 8 9 16 71 0 97 -24 19 -19 34 -23 67 -21 24 1 47 10 54 19 7 9 31 18
52 20 31 3 44 -1 62 -19 13 -13 24 -30 24 -37 0 -20 39 -12 56 12 20 29 34 28
34 -4 0 -14 4 -23 10 -19 6 3 10 17 10 31 0 13 5 24 10 24 15 0 12 -57 -2 -64
-20 -9 38 3 67 14 21 8 25 14 20 31 -6 18 -4 20 14 14 16 -5 20 -3 15 9 -3 8
4 24 15 35 12 12 21 25 21 29 0 14 45 52 61 52 26 0 79 94 79 140 0 33 4 43
20 47 24 6 25 21 5 47 -20 27 -19 36 5 36 26 0 25 8 -2 37 l-21 23 24 0 c23 1
23 1 5 15 -10 8 -24 16 -30 18 -7 3 -7 9 3 21 12 14 11 19 -4 36 -14 15 -15
20 -4 20 10 0 15 15 16 50 l2 51 -37 -6 -37 -6 25 21 c27 24 51 84 43 109 -17
54 -28 71 -54 81 -16 7 -35 10 -43 7 -20 -8 -62 23 -45 33 7 5 -7 11 -37 15
-27 4 -57 9 -66 12 -12 3 -18 -1 -18 -12z m45 -15 c-3 -5 -12 -10 -18 -10 -7
0 -6 4 3 10 19 12 23 12 15 0z"/>
<path d="M2820 1610 c0 -5 7 -10 15 -10 8 0 15 5 15 10 0 6 -7 10 -15 10 -8 0
-15 -4 -15 -10z"/>
<path d="M2702 1548 c3 -7 13 -15 22 -16 12 -3 17 1 14 10 -3 7 -13 15 -22 16
-12 3 -17 -1 -14 -10z"/>
<path d="M2782 1528 c7 -19 38 -22 38 -4 0 10 -9 16 -21 16 -12 0 -19 -5 -17
-12z"/>
<path d="M2760 1430 c0 -5 5 -10 10 -10 6 0 10 5 10 10 0 6 -4 10 -10 10 -5 0
-10 -4 -10 -10z"/>
<path d="M2650 1129 c0 -11 5 -17 10 -14 6 3 10 13 10 21 0 8 -4 14 -10 14 -5
0 -10 -9 -10 -21z"/>
<path d="M2577 1114 c3 -8 11 -14 19 -14 21 0 17 17 -5 23 -14 3 -18 1 -14 -9z"/>
<path d="M3052 1100 c0 -14 2 -19 5 -12 2 6 2 18 0 25 -3 6 -5 1 -5 -13z"/>
<path d="M638 1073 c7 -3 16 -2 19 1 4 3 -2 6 -13 5 -11 0 -14 -3 -6 -6z"/>
<path d="M600 1040 c-12 -7 -12 -10 2 -15 9 -4 25 -5 35 -3 17 4 16 5 -3 15
-12 7 -26 8 -34 3z"/>
<path d="M740 963 c0 -7 -19 -14 -42 -16 l-43 -4 43 -1 c47 -2 54 -13 17 -30
-29 -13 -32 -27 -9 -36 25 -10 45 -7 91 10 53 20 55 32 6 36 -28 2 -41 9 -50
28 -7 14 -13 20 -13 13z"/>
<path d="M843 862 c-13 -2 -23 -8 -23 -13 0 -5 -6 -9 -14 -9 -8 0 -16 -7 -20
-15 -3 -8 -10 -15 -16 -15 -5 0 -10 7 -10 15 0 19 -7 19 -27 -1 -14 -14 -14
-16 6 -21 13 -3 21 -13 21 -25 0 -18 5 -20 42 -15 27 4 37 2 27 -4 -11 -7 -8
-9 11 -9 14 0 34 -7 44 -15 31 -23 42 -17 15 8 -14 12 -31 31 -39 41 -14 18
-13 19 13 12 22 -5 27 -3 27 13 0 11 8 22 18 24 15 4 15 5 -2 6 -11 0 -27 7
-35 14 -9 7 -26 11 -38 9z"/>
</g>
</svg>
